HIERARCHY
ROOT Hips
{
	OFFSET 	 0.0	 0.0	 0.0
	CHANNELS 6 Xposition Yposition Zposition Xrotation Yrotation Zrotation 
	JOINT Spine
	{
		OFFSET 	 15.3169	 0.0	 -0.012192
		CHANNELS 3 Xrotation Yrotation Zrotation 
		JOINT Spine_1
		{
			OFFSET 	 15.3176	 0.0	 -0.012192
			CHANNELS 3 Xrotation Yrotation Zrotation 
			JOINT Neck
			{
				OFFSET 	 19.9142	 -1e-06	 1.563377
				CHANNELS 3 Xrotation Yrotation Zrotation 
				JOINT Head
				{
					OFFSET 	 6.926521	 0.0	 0.0
					CHANNELS 3 Xrotation Yrotation Zrotation 
					End Site
					{
						OFFSET 	 20.766598	 0.0	 0.0
					}
				}
				JOINT LeftShoulder
				{
					OFFSET 	 -6.201691	 -7.28423	 0.708832
					CHANNELS 3 Xrotation Yrotation Zrotation 
					JOINT LeftArm
					{
						OFFSET 	 14.107998	 1.3e-05	 0.0
						CHANNELS 3 Xrotation Yrotation Zrotation 
						JOINT LeftForeArm
						{
							OFFSET 	 28.5802	 0.0	 0.0
							CHANNELS 3 Xrotation Yrotation Zrotation 
							JOINT LeftHand
							{
								OFFSET 	 27.091896	 0.0	 0.0
								CHANNELS 3 Xrotation Yrotation Zrotation 
								JOINT Bip01_L_Finger0
								{
									OFFSET 	 2.676086	 3.19825	 0.628212
									CHANNELS 3 Xrotation Yrotation Zrotation 
									JOINT Bip01_L_Finger01
									{
										OFFSET 	 2.82782	 0.0	 0.0
										CHANNELS 3 Xrotation Yrotation Zrotation 
										JOINT Bip01_L_Finger02
										{
											OFFSET 	 3.100327	 0.0	 0.0
											CHANNELS 3 Xrotation Yrotation Zrotation 
											End Site
											{
												OFFSET 	 2.683968	 0.0	 0.0
											}
										}
									}
								}
								JOINT Bip01_L_Finger1
								{
									OFFSET 	 9.438972	 2.24244	 -0.203926
									CHANNELS 3 Xrotation Yrotation Zrotation 
									JOINT Bip01_L_Finger11
									{
										OFFSET 	 3.12896	 0.0	 0.0
										CHANNELS 3 Xrotation Yrotation Zrotation 
										JOINT Bip01_L_Finger12
										{
											OFFSET 	 2.379051	 0.0	 0.0
											CHANNELS 3 Xrotation Yrotation Zrotation 
											End Site
											{
												OFFSET 	 2.09993	 0.0	 0.0
											}
										}
									}
								}
								JOINT Bip01_L_Finger2
								{
									OFFSET 	 9.55928	 -0.145352	 -0.186424
									CHANNELS 3 Xrotation Yrotation Zrotation 
									JOINT Bip01_L_Finger21
									{
										OFFSET 	 3.801407	 0.0	 0.0
										CHANNELS 3 Xrotation Yrotation Zrotation 
										JOINT Bip01_L_Finger22
										{
											OFFSET 	 2.848793	 0.0	 0.0
											CHANNELS 3 Xrotation Yrotation Zrotation 
											End Site
											{
												OFFSET 	 2.01886	 0.0	 0.0
											}
										}
									}
								}
								JOINT Bip01_L_Finger3
								{
									OFFSET 	 8.993629	 -2.30169	 0.226974
									CHANNELS 3 Xrotation Yrotation Zrotation 
									JOINT Bip01_L_Finger31
									{
										OFFSET 	 3.369652	 0.0	 0.0
										CHANNELS 3 Xrotation Yrotation Zrotation 
										JOINT Bip01_L_Finger32
										{
											OFFSET 	 2.444229	 0.0	 0.0
											CHANNELS 3 Xrotation Yrotation Zrotation 
											End Site
											{
												OFFSET 	 2.057808	 0.0	 0.0
											}
										}
									}
								}
								JOINT Bip01_L_Finger4
								{
									OFFSET 	 8.023811	 -3.97473	 1.201897
									CHANNELS 3 Xrotation Yrotation Zrotation 
									JOINT Bip01_L_Finger41
									{
										OFFSET 	 2.908783	 0.0	 0.0
										CHANNELS 3 Xrotation Yrotation Zrotation 
										JOINT Bip01_L_Finger42
										{
											OFFSET 	 1.535797	 0.0	 0.0
											CHANNELS 3 Xrotation Yrotation Zrotation 
											End Site
											{
												OFFSET 	 1.630142	 0.0	 0.0
											}
										}
									}
								}
							}
						}
					}
				}
				JOINT RightShoulder
				{
					OFFSET 	 -6.20549	 7.280139	 0.70887
					CHANNELS 3 Xrotation Yrotation Zrotation 
					JOINT RightArm
					{
						OFFSET 	 14.107998	 -1e-05	 0.0
						CHANNELS 3 Xrotation Yrotation Zrotation 
						JOINT RightForeArm
						{
							OFFSET 	 28.5802	 -1.9e-05	 0.0
							CHANNELS 3 Xrotation Yrotation Zrotation 
							JOINT RightHand
							{
								OFFSET 	 27.092003	 0.0	 0.0
								CHANNELS 3 Xrotation Yrotation Zrotation 
								JOINT Bip01_R_Finger0
								{
									OFFSET 	 2.676079	 -3.19825	 0.628212
									CHANNELS 3 Xrotation Yrotation Zrotation 
									JOINT Bip01_R_Finger01
									{
										OFFSET 	 2.82782	 0.0	 0.0
										CHANNELS 3 Xrotation Yrotation Zrotation 
										JOINT Bip01_R_Finger02
										{
											OFFSET 	 3.100342	 0.0	 0.0
											CHANNELS 3 Xrotation Yrotation Zrotation 
											End Site
											{
												OFFSET 	 2.68396	 0.0	 0.0
											}
										}
									}
								}
								JOINT Bip01_R_Finger1
								{
									OFFSET 	 9.438957	 -2.242439	 -0.203918
									CHANNELS 3 Xrotation Yrotation Zrotation 
									JOINT Bip01_R_Finger11
									{
										OFFSET 	 3.12896	 0.0	 0.0
										CHANNELS 3 Xrotation Yrotation Zrotation 
										JOINT Bip01_R_Finger12
										{
											OFFSET 	 2.379051	 0.0	 0.0
											CHANNELS 3 Xrotation Yrotation Zrotation 
											End Site
											{
												OFFSET 	 2.099922	 0.0	 0.0
											}
										}
									}
								}
								JOINT Bip01_R_Finger2
								{
									OFFSET 	 9.559288	 0.145353	 -0.186417
									CHANNELS 3 Xrotation Yrotation Zrotation 
									JOINT Bip01_R_Finger21
									{
										OFFSET 	 3.801407	 0.0	 0.0
										CHANNELS 3 Xrotation Yrotation Zrotation 
										JOINT Bip01_R_Finger22
										{
											OFFSET 	 2.848793	 0.0	 0.0
											CHANNELS 3 Xrotation Yrotation Zrotation 
											End Site
											{
												OFFSET 	 2.01886	 0.0	 0.0
											}
										}
									}
								}
								JOINT Bip01_R_Finger3
								{
									OFFSET 	 8.993629	 2.301691	 0.226974
									CHANNELS 3 Xrotation Yrotation Zrotation 
									JOINT Bip01_R_Finger31
									{
										OFFSET 	 3.369652	 0.0	 0.0
										CHANNELS 3 Xrotation Yrotation Zrotation 
										JOINT Bip01_R_Finger32
										{
											OFFSET 	 2.444221	 0.0	 0.0
											CHANNELS 3 Xrotation Yrotation Zrotation 
											End Site
											{
												OFFSET 	 2.057823	 0.0	 0.0
											}
										}
									}
								}
								JOINT Bip01_R_Finger4
								{
									OFFSET 	 8.023811	 3.97473	 1.20192
									CHANNELS 3 Xrotation Yrotation Zrotation 
									JOINT Bip01_R_Finger41
									{
										OFFSET 	 2.908783	 0.0	 0.0
										CHANNELS 3 Xrotation Yrotation Zrotation 
										JOINT Bip01_R_Finger42
										{
											OFFSET 	 1.535797	 0.0	 0.0
											CHANNELS 3 Xrotation Yrotation Zrotation 
											End Site
											{
												OFFSET 	 1.630142	 0.0	 0.0
											}
										}
									}
								}
							}
						}
					}
				}
			}
		}
	}
	JOINT LeftUpLeg
	{
		OFFSET 	 -12.021299	 -8.83685	 -0.372498
		CHANNELS 3 Xrotation Yrotation Zrotation 
		JOINT LeftLeg
		{
			OFFSET 	 39.9035	 0.0	 0.0
			CHANNELS 3 Xrotation Yrotation Zrotation 
			JOINT LeftFoot
			{
				OFFSET 	 39.6689	 0.0	 0.0
				CHANNELS 3 Xrotation Yrotation Zrotation 
				JOINT Bip01_L_Toe0
				{
					OFFSET 	 10.162399	 -2e-06	 13.629601
					CHANNELS 3 Xrotation Yrotation Zrotation 
					End Site
					{
						OFFSET 	 8.38147	 0.0	 0.0
					}
				}
			}
		}
	}
	JOINT RightUpLeg
	{
		OFFSET 	 -12.021299	 8.836849	 -0.372444
		CHANNELS 3 Xrotation Yrotation Zrotation 
		JOINT RightLeg
		{
			OFFSET 	 39.9035	 0.0	 0.0
			CHANNELS 3 Xrotation Yrotation Zrotation 
			JOINT RightFoot
			{
				OFFSET 	 39.6689	 0.0	 0.0
				CHANNELS 3 Xrotation Yrotation Zrotation 
				JOINT Bip01_R_Toe0
				{
					OFFSET 	 10.162399	 -2e-06	 13.629601
					CHANNELS 3 Xrotation Yrotation Zrotation 
					End Site
					{
						OFFSET 	 8.38147	 0.0	 0.0
					}
				}
			}
		}
	}
}
MOTION
Frames: 10
Frame Time: 0.013889
-3.48819382695 90.0 -0.459214461254 -175.895001745 13.6754603113 -95.595765853 -1.678759 -0.913845 3.00282 -0.0 0.0 0.0 6.905397 -17.874492 7.13361 4.696796 1.627362 -7.325581 169.306013 -14.240011 112.792858 45.908966 32.88091 12.820043 -4e-06 22.402185 5e-06 -85.245576 -16.295986 4.974718 0.0 0.0 0.0 0.0 0.0 0.0 0.0 0.0 0.0 0.0 0.0 0.0 0.0 0.0 0.0 0.0 0.0 0.0 0.0 0.0 0.0 0.0 0.0 0.0 0.0 0.0 0.0 0.0 0.0 0.0 0.0 0.0 0.0 0.0 0.0 0.0 0.0 0.0 0.0 0.0 0.0 0.0 0.0 0.0 0.0 -179.052395 -20.784179 -113.227319 -32.118288 13.416468 -25.067889 1e-06 22.961627 6e-06 94.086532 -18.383912 -2.643448 0.0 0.0 0.0 0.0 0.0 0.0 0.0 0.0 0.0 0.0 0.0 0.0 0.0 0.0 0.0 0.0 0.0 0.0 0.0 0.0 0.0 0.0 0.0 0.0 0.0 0.0 0.0 0.0 0.0 0.0 0.0 0.0 0.0 0.0 0.0 0.0 0.0 0.0 0.0 0.0 0.0 0.0 0.0 0.0 0.0 15.886404 0.62391 -170.715565 -5e-06 49.736071 9e-06 4.249681 -8.477277 8.941494 0.0 0.0 0.0 -12.8485 5.869086 -176.85901 1e-06 5.145862 1e-06 2.247295 -1.295131 6.542153 0.0 0.0 0.0
-3.01607573024 89.989022 -1.21928835199 -175.863634845 12.991501121 -95.7497597575 -1.62034 -1.02735 3.205383 -0.0 1e-06 0.0 6.710329 -17.855841 7.117125 4.478004 1.717785 -7.170684 169.584229 -14.086809 112.790863 46.094239 32.633609 12.870352 -2e-06 22.332779 1e-06 -85.071331 -16.79716 4.976243 0.0 0.0 0.0 0.0 0.0 0.0 0.0 0.0 0.0 0.0 0.0 0.0 0.0 0.0 0.0 0.0 0.0 0.0 0.0 0.0 0.0 0.0 0.0 0.0 0.0 0.0 0.0 0.0 0.0 0.0 0.0 0.0 0.0 0.0 0.0 0.0 0.0 0.0 0.0 0.0 0.0 0.0 0.0 0.0 0.0 -178.777167 -20.723431 -113.243644 -32.10957 13.383273 -24.783487 -7e-06 23.08563 2e-06 94.216312 -18.286312 -2.656102 0.0 0.0 0.0 0.0 0.0 0.0 0.0 0.0 0.0 0.0 0.0 0.0 0.0 0.0 0.0 0.0 0.0 0.0 0.0 0.0 0.0 0.0 0.0 0.0 0.0 0.0 0.0 0.0 0.0 0.0 0.0 0.0 0.0 0.0 0.0 0.0 0.0 0.0 0.0 0.0 0.0 0.0 0.0 0.0 0.0 16.098221 2.042926 -170.565478 -5e-06 52.052937 1e-05 3.189204 -7.552174 8.806738 0.0 0.0 0.0 -13.046951 5.025117 -176.767225 2e-06 5.17942 1e-06 2.653498 -1.686338 6.330211 0.0 0.0 0.0
-2.57422945936 89.989006 -1.94837781352 -175.814436939 12.3264098391 -95.8598947197 -1.544193 -1.166207 3.388956 -0.0 0.0 0.0 6.520175 -17.84885 7.077236 4.257652 1.821602 -7.012167 169.857414 -13.924934 112.790843 46.277506 32.384232 12.891174 -3e-06 22.291878 3e-06 -85.035828 -17.155383 5.007566 0.0 0.0 0.0 0.0 0.0 0.0 0.0 0.0 0.0 0.0 0.0 0.0 0.0 0.0 0.0 0.0 0.0 0.0 0.0 0.0 0.0 0.0 0.0 0.0 0.0 0.0 0.0 0.0 0.0 0.0 0.0 0.0 0.0 0.0 0.0 0.0 0.0 0.0 0.0 0.0 0.0 0.0 0.0 0.0 0.0 -178.489064 -20.661181 -113.270486 -32.087737 13.353826 -24.478672 1e-06 23.20623 4e-06 94.318485 -18.176182 -2.687898 0.0 0.0 0.0 0.0 0.0 0.0 0.0 0.0 0.0 0.0 0.0 0.0 0.0 0.0 0.0 0.0 0.0 0.0 0.0 0.0 0.0 0.0 0.0 0.0 0.0 0.0 0.0 0.0 0.0 0.0 0.0 0.0 0.0 0.0 0.0 0.0 0.0 0.0 0.0 0.0 0.0 0.0 0.0 0.0 0.0 16.297422 3.471112 -170.464187 -4e-06 54.093217 1.1e-05 2.186189 -6.775709 8.690071 0.0 0.0 0.0 -13.220009 4.160829 -176.698555 1e-06 5.205541 1e-06 3.040493 -2.153551 6.130227 0.0 0.0 0.0
-2.1559783432 90.021996 -2.6562592372 -175.751513117 11.6843818326 -95.8872569842 -1.450695 -1.328215 3.530749 -0.0 1e-06 0.0 6.340649 -17.849176 7.020989 4.038904 1.936934 -6.851766 170.126665 -13.765299 112.790071 46.427746 32.128172 12.91238 -4e-06 22.276075 4e-06 -85.078564 -17.364458 5.076507 0.0 0.0 0.0 0.0 0.0 0.0 0.0 0.0 0.0 0.0 0.0 0.0 0.0 0.0 0.0 0.0 0.0 0.0 0.0 0.0 0.0 0.0 0.0 0.0 0.0 0.0 0.0 0.0 0.0 0.0 0.0 0.0 0.0 0.0 0.0 0.0 0.0 0.0 0.0 0.0 0.0 0.0 0.0 0.0 0.0 -178.183445 -20.60225 -113.290342 -32.05196 13.33818 -24.168486 -1e-06 23.308832 6e-06 94.418083 -18.051802 -2.712858 0.0 0.0 0.0 0.0 0.0 0.0 0.0 0.0 0.0 0.0 0.0 0.0 0.0 0.0 0.0 0.0 0.0 0.0 0.0 0.0 0.0 0.0 0.0 0.0 0.0 0.0 0.0 0.0 0.0 0.0 0.0 0.0 0.0 0.0 0.0 0.0 0.0 0.0 0.0 0.0 0.0 0.0 0.0 0.0 0.0 16.425323 4.884903 -170.460089 -2e-06 55.90571 1.1e-05 1.30176 -6.167718 8.511265 0.0 0.0 0.0 -13.387139 3.29818 -176.66857 -2e-06 5.232772 1e-06 3.366083 -2.692697 5.867428 0.0 0.0 0.0
-1.72031104007 90.082032 -3.38881566434 -175.674895123 11.0646061473 -95.886807107 -1.339789 -1.505419 3.612757 -0.0 0.0 0.0 6.17105 -17.853404 6.951319 3.819972 2.063162 -6.684584 170.402609 -13.621195 112.782578 46.555341 31.880103 12.946856 2e-06 22.281274 4e-06 -85.232394 -17.413695 5.136961 0.0 0.0 0.0 0.0 0.0 0.0 0.0 0.0 0.0 0.0 0.0 0.0 0.0 0.0 0.0 0.0 0.0 0.0 0.0 0.0 0.0 0.0 0.0 0.0 0.0 0.0 0.0 0.0 0.0 0.0 0.0 0.0 0.0 0.0 0.0 0.0 0.0 0.0 0.0 0.0 0.0 0.0 0.0 0.0 0.0 -177.869646 -20.555695 -113.305532 -32.016519 13.34714 -23.850283 -3e-06 23.383139 4e-06 94.511021 -17.897918 -2.762289 0.0 0.0 0.0 0.0 0.0 0.0 0.0 0.0 0.0 0.0 0.0 0.0 0.0 0.0 0.0 0.0 0.0 0.0 0.0 0.0 0.0 0.0 0.0 0.0 0.0 0.0 0.0 0.0 0.0 0.0 0.0 0.0 0.0 0.0 0.0 0.0 0.0 0.0 0.0 0.0 0.0 0.0 0.0 0.0 0.0 16.482216 6.272198 -170.567541 -5e-06 57.543401 1.2e-05 0.646841 -5.811249 8.286072 0.0 0.0 0.0 -13.549703 2.451305 -176.68846 1e-06 5.258212 1e-06 3.644451 -3.258972 5.521768 0.0 0.0 0.0
-1.31762108798 90.15004 -4.09821829868 -175.577307755 10.4458332718 -95.8601950469 -1.226815 -1.679756 3.641706 -0.0 1e-06 0.0 5.996855 -17.861011 6.853731 3.605974 2.176249 -6.502929 170.687376 -13.49567 112.762778 46.642293 31.629821 13.008167 -1e-06 22.309274 3e-06 -85.448446 -17.318879 5.185163 0.0 0.0 0.0 0.0 0.0 0.0 0.0 0.0 0.0 0.0 0.0 0.0 0.0 0.0 0.0 0.0 0.0 0.0 0.0 0.0 0.0 0.0 0.0 0.0 0.0 0.0 0.0 0.0 0.0 0.0 0.0 0.0 0.0 0.0 0.0 0.0 0.0 0.0 0.0 0.0 0.0 0.0 0.0 0.0 0.0 -177.548111 -20.519482 -113.318338 -32.001677 13.396837 -23.529858 -1e-06 23.444433 7e-06 94.604294 -17.716551 -2.806046 0.0 0.0 0.0 0.0 0.0 0.0 0.0 0.0 0.0 0.0 0.0 0.0 0.0 0.0 0.0 0.0 0.0 0.0 0.0 0.0 0.0 0.0 0.0 0.0 0.0 0.0 0.0 0.0 0.0 0.0 0.0 0.0 0.0 0.0 0.0 0.0 0.0 0.0 0.0 0.0 0.0 0.0 0.0 0.0 0.0 16.468826 7.636446 -170.783799 -5e-06 59.029801 1.3e-05 0.231867 -5.599293 7.951974 0.0 0.0 0.0 -13.731629 1.627424 -176.754385 -0.0 5.268454 1e-06 3.896991 -3.821178 5.087885 0.0 0.0 0.0
-0.937370431536 90.228012 -4.82415991617 -175.501572392 9.82824808809 -95.8008038224 -1.111068 -1.852132 3.618658 -0.0 0.0 0.0 5.820735 -17.849706 6.7404 3.389778 2.273225 -6.326339 170.9794 -13.385704 112.733954 46.706104 31.392499 13.092277 1e-06 22.357878 1e-06 -85.721914 -17.098813 5.218249 0.0 0.0 0.0 0.0 0.0 0.0 0.0 0.0 0.0 0.0 0.0 0.0 0.0 0.0 0.0 0.0 0.0 0.0 0.0 0.0 0.0 0.0 0.0 0.0 0.0 0.0 0.0 0.0 0.0 0.0 0.0 0.0 0.0 0.0 0.0 0.0 0.0 0.0 0.0 0.0 0.0 0.0 0.0 0.0 0.0 -177.225848 -20.487667 -113.320019 -32.002332 13.478488 -23.214847 -1e-06 23.499942 9e-06 94.671845 -17.516555 -2.829856 0.0 0.0 0.0 0.0 0.0 0.0 0.0 0.0 0.0 0.0 0.0 0.0 0.0 0.0 0.0 0.0 0.0 0.0 0.0 0.0 0.0 0.0 0.0 0.0 0.0 0.0 0.0 0.0 0.0 0.0 0.0 0.0 0.0 0.0 0.0 0.0 0.0 0.0 0.0 0.0 0.0 0.0 0.0 0.0 0.0 16.422695 9.000479 -171.096252 -6e-06 60.374221 1.3e-05 0.006498 -5.454659 7.542607 0.0 0.0 0.0 -13.948071 0.852282 -176.858327 2e-06 5.275323 1e-06 4.120596 -4.37478 4.560021 0.0 0.0 0.0
-0.569527038436 90.308022 -5.54882475895 -175.44523593 9.21587855788 -95.7031758983 -0.990973 -2.01072 3.554609 -0.0 0.0 0.0 5.645761 -17.844675 6.614549 3.166981 2.362097 -6.170386 171.271064 -13.295027 112.707658 46.73406 31.144153 13.194181 -3e-06 22.436878 2e-06 -86.037769 -16.81087 5.241016 0.0 0.0 0.0 0.0 0.0 0.0 0.0 0.0 0.0 0.0 0.0 0.0 0.0 0.0 0.0 0.0 0.0 0.0 0.0 0.0 0.0 0.0 0.0 0.0 0.0 0.0 0.0 0.0 0.0 0.0 0.0 0.0 0.0 0.0 0.0 0.0 0.0 0.0 0.0 0.0 0.0 0.0 0.0 0.0 0.0 -176.902844 -20.476233 -113.310094 -32.015699 13.580523 -22.907987 -6e-06 23.548245 8e-06 94.731117 -17.31839 -2.831087 0.0 0.0 0.0 0.0 0.0 0.0 0.0 0.0 0.0 0.0 0.0 0.0 0.0 0.0 0.0 0.0 0.0 0.0 0.0 0.0 0.0 0.0 0.0 0.0 0.0 0.0 0.0 0.0 0.0 0.0 0.0 0.0 0.0 0.0 0.0 0.0 0.0 0.0 0.0 0.0 0.0 0.0 0.0 0.0 0.0 16.365565 10.342692 -171.485177 -6e-06 61.407328 1.3e-05 -0.103175 -5.346404 7.097746 0.0 0.0 0.0 -14.203951 0.113955 -176.993141 -0.0 5.274251 1e-06 4.314881 -4.912427 4.001347 0.0 0.0 0.0
-0.211279554568 90.391007 -6.28086558269 -175.401502074 8.60353994168 -95.5878309494 -0.869771 -2.160812 3.470125 -0.0 0.0 0.0 5.462739 -17.839703 6.453868 2.948302 2.448844 -6.007192 171.560638 -13.211726 112.667695 46.718586 30.88702 13.31645 -0.0 22.539583 2e-06 -86.412917 -16.469861 5.265316 0.0 0.0 0.0 0.0 0.0 0.0 0.0 0.0 0.0 0.0 0.0 0.0 0.0 0.0 0.0 0.0 0.0 0.0 0.0 0.0 0.0 0.0 0.0 0.0 0.0 0.0 0.0 0.0 0.0 0.0 0.0 0.0 0.0 0.0 0.0 0.0 0.0 0.0 0.0 0.0 0.0 0.0 0.0 0.0 0.0 -176.581657 -20.47723 -113.312464 -32.021289 13.679172 -22.618219 -5e-06 23.606245 7e-06 94.753753 -17.136514 -2.813365 0.0 0.0 0.0 0.0 0.0 0.0 0.0 0.0 0.0 0.0 0.0 0.0 0.0 0.0 0.0 0.0 0.0 0.0 0.0 0.0 0.0 0.0 0.0 0.0 0.0 0.0 0.0 0.0 0.0 0.0 0.0 0.0 0.0 0.0 0.0 0.0 0.0 0.0 0.0 0.0 0.0 0.0 0.0 0.0 0.0 16.314452 11.661865 -171.925096 -8e-06 62.133534 1.3e-05 -0.217143 -5.255484 6.593217 0.0 0.0 0.0 -14.483138 -0.595318 -177.147735 -0.0 5.271211 1e-06 4.523863 -5.447008 3.477094 0.0 0.0 0.0
0.123439237379 90.46901 -7.01010321923 -175.355787155 8.00138351524 -95.4660390801 -0.745342 -2.312276 3.379759 -1e-06 0.0 0.0 5.278298 -17.833795 6.26072 2.734418 2.536147 -5.852586 171.843712 -13.127755 112.621202 46.663405 30.622791 13.451893 -1e-06 22.662595 3e-06 -86.840883 -16.100255 5.291822 0.0 0.0 0.0 0.0 0.0 0.0 0.0 0.0 0.0 0.0 0.0 0.0 0.0 0.0 0.0 0.0 0.0 0.0 0.0 0.0 0.0 0.0 0.0 0.0 0.0 0.0 0.0 0.0 0.0 0.0 0.0 0.0 0.0 0.0 0.0 0.0 0.0 0.0 0.0 0.0 0.0 0.0 0.0 0.0 0.0 -176.269537 -20.481806 -113.33064 -31.999279 13.766753 -22.338193 -0.0 23.674646 7e-06 94.734184 -16.996625 -2.769229 0.0 0.0 0.0 0.0 0.0 0.0 0.0 0.0 0.0 0.0 0.0 0.0 0.0 0.0 0.0 0.0 0.0 0.0 0.0 0.0 0.0 0.0 0.0 0.0 0.0 0.0 0.0 0.0 0.0 0.0 0.0 0.0 0.0 0.0 0.0 0.0 0.0 0.0 0.0 0.0 0.0 0.0 0.0 0.0 0.0 16.295853 12.936447 -172.394699 -5e-06 62.515349 1.5e-05 -0.425719 -5.219498 6.017188 0.0 0.0 0.0 -14.77109 -1.289678 -177.313982 -1e-06 5.266291 1e-06 4.73904 -5.977198 3.024347 0.0 0.0 0.0
